<?xml version="1.0" standalone="no"?>
<!DOCTYPE svg PUBLIC "-//W3C//DTD SVG 20010904//EN"
 "http://www.w3.org/TR/2001/REC-SVG-20010904/DTD/svg10.dtd">
<svg version="1.0" xmlns="http://www.w3.org/2000/svg"
 width="1024.000000pt" height="1024.000000pt" viewBox="0 0 1024.000000 1024.000000"
 preserveAspectRatio="xMidYMid meet">

<g transform="translate(0.000000,1024.000000) scale(0.100000,-0.100000)"
fill="#000000" stroke="none">
<path d="M2020 7475 c-336 -69 -606 -319 -702 -650 l-23 -80 0 -1625 0 -1625
23 -80 c88 -304 317 -535 627 -632 l90 -28 2080 0 2080 0 90 28 c282 89 490
279 597 548 53 133 58 183 58 629 0 287 3 410 11 410 6 0 387 -269 847 -598
460 -329 852 -609 870 -621 95 -66 227 -34 268 66 21 48 21 3758 0 3806 -41
100 -173 132 -268 66 -18 -12 -410 -292 -870 -621 -460 -329 -841 -598 -847
-598 -6 0 -11 153 -13 443 -4 425 -5 445 -27 517 -102 338 -382 589 -725 649
-41 8 -708 11 -2080 10 -1643 -1 -2033 -3 -2086 -14z m4159 -357 c99 -31 164
-71 242 -148 52 -51 86 -96 107 -140 60 -122 62 -146 62 -783 0 -556 1 -579
20 -617 36 -71 123 -111 199 -90 24 6 360 240 912 634 l874 625 3 -740 c1
-406 1 -1072 0 -1478 l-3 -740 -874 625 c-552 394 -888 628 -912 634 -76 21
-163 -19 -199 -90 -19 -38 -20 -61 -20 -617 0 -471 -3 -591 -15 -648 -43 -204
-209 -374 -415 -426 -81 -21 -4007 -21 -4090 0 -150 37 -304 158 -368 291 -64
131 -62 55 -62 1710 0 1289 2 1515 15 1575 48 226 234 400 465 435 30 4 944 7
2030 6 1813 -1 1979 -3 2029 -18z"/>
<path d="M2154 5840 c-47 -11 -92 -47 -114 -90 -19 -38 -20 -61 -20 -635 0
-653 -2 -626 60 -679 53 -44 83 -48 411 -44 l306 3 41 28 c97 64 110 200 26
279 -47 44 -73 48 -290 48 l-204 0 0 480 c0 383 -3 487 -14 513 -17 42 -66 83
-114 97 -41 11 -44 11 -88 0z"/>
<path d="M3235 5835 c-50 -18 -100 -71 -114 -122 -15 -54 -15 -1134 0 -1188
15 -52 74 -110 127 -124 80 -22 165 17 201 93 21 43 21 51 19 638 l-3 594 -27
41 c-43 65 -130 95 -203 68z"/>
<path d="M3798 5841 c-86 -28 -133 -87 -132 -170 0 -53 16 -87 288 -631 158
-316 297 -585 308 -597 32 -35 100 -57 151 -49 91 14 84 3 393 611 156 308
291 583 299 612 21 68 7 123 -44 174 -64 65 -157 71 -234 17 -20 -14 -82 -129
-230 -424 -111 -222 -204 -404 -207 -404 -3 0 -93 176 -200 390 -107 215 -205
402 -218 415 -44 48 -121 72 -174 56z"/>
<path d="M5420 5834 c-19 -8 -45 -25 -58 -37 -53 -50 -52 -31 -52 -677 0 -658
-2 -631 60 -684 53 -44 83 -48 411 -44 l306 3 41 28 c97 64 110 200 26 279
-47 44 -73 48 -290 48 l-204 0 0 94 0 94 123 3 c101 3 128 8 157 25 117 68
117 240 0 308 -29 17 -56 22 -158 25 l-123 3 3 92 3 91 215 5 c226 5 235 7
282 57 76 80 60 208 -34 270 l-41 28 -316 2 c-267 3 -321 0 -351 -13z"/>
</g>
</svg>
